<svg class="w-32" aria-label="OpenFiber Logo" viewBox="0 0 205 40">
    <path fill="#e16489" d="M31.1343 20.606V20.0015C31.1343 15.3871 34.8832 11.5573 39.4901 11.5573C41.8446 11.5573 43.9721 12.5241 45.5011 14.083C46.9952 15.6044 47.9156 17.7006 47.9156 20.0039C47.9156 22.3599 46.9502 24.4908 45.3939 26.0223H45.3963L45.3839 26.0298C43.8699 27.5138 41.8022 28.4331 39.5175 28.4431C37.4547 28.4431 36.1752 27.921 34.8383 27.0291L32.6309 29.8696C34.5788 31.2312 37.4547 32.0356 39.5175 32.0356C42.7824 32.0256 45.7431 30.7116 47.903 28.5855C50.1204 26.402 51.4947 23.3642 51.4947 20.0039C51.4947 16.6438 50.1803 13.7432 48.0527 11.5698H48.0503C45.8702 9.34629 42.8348 7.96973 39.4801 7.96973C32.8405 7.96973 27.5078 13.3535 27.5078 20.0039V20.6086V40.0027H31.1219V20.6086L31.1343 20.606Z"></path>
    <path fill="#e16489" d="M12.2574 28.4153C7.65061 28.4153 3.8993 24.6154 3.8993 19.9986C3.8993 15.3818 7.64811 11.5819 12.2574 11.5819C16.8667 11.5819 20.6156 15.3818 20.6156 19.9986C20.6156 24.6154 16.8667 28.4153 12.2574 28.4153ZM12.2574 7.96441C5.61532 7.96441 0.285156 13.3482 0.285156 19.9986C0.285156 26.649 5.61532 32.0329 12.2574 32.0329C18.8996 32.0329 24.2272 26.649 24.2272 19.9986C24.2272 13.3482 18.897 7.96191 12.2574 7.96191"></path>
    <path fill="#e16489" d="M133.215 3.62001V0H127.567C122.778 0 120.473 2.7606 120.473 7.32996V8.94135H116.949V12.5614H120.473V31.6732H124.088V12.5614H129.597V8.94135H124.088V7.32996C124.088 4.61433 125.534 3.62001 127.567 3.62001H133.215Z"></path>
    <path fill="#e16489" d="M195.875 31.6735H199.489V15.2949C199.489 12.5792 200.936 11.5849 202.969 11.5849H205.002V7.96484H202.969C198.179 7.96484 195.875 10.7254 195.875 15.2949V31.6735Z"></path>
    <path fill="#e16489" d="M136.829 8.94141H133.215V31.6733H136.829V8.94141Z"></path>
    <path fill="#e16489" d="M100.078 31.7878H103.664V18.0298C103.664 12.5635 99.327 8.2215 93.962 8.0816C93.8746 8.0816 93.7848 8.0791 93.6976 8.0791C90.5748 8.0791 87.7638 9.33074 85.7235 11.3593V9.05593H82.1094L82.1493 31.6903H85.7634L85.7235 18.6569C86.2522 15.7713 88.8038 11.6741 93.6951 11.6741C93.7848 11.6741 93.8746 11.6741 93.9644 11.6791H93.9694C97.3491 11.819 100.08 14.5397 100.08 18.0322V31.7903L100.078 31.7878Z"></path>
    <path fill="#e16489" d="M144.903 0.0175781H141.289V20.0163C141.289 26.6667 146.619 32.0506 153.262 32.0506C156.616 32.0506 159.651 30.6715 161.832 28.4506C163.962 26.2795 165.278 23.3016 165.278 20.0163C165.278 19.9814 165.278 19.9464 165.278 19.9114L165.281 19.9039C165.251 16.5887 163.882 13.5907 161.687 11.4322C159.519 9.2987 156.546 7.9846 153.268 7.9846C153.234 7.9846 153.199 7.9846 153.164 7.9846C152.643 7.9896 149.629 8.09452 146.619 10.1431L148.701 12.9837C149.175 12.6889 150.633 11.5397 153.191 11.5746H153.194C153.219 11.5746 153.243 11.5746 153.268 11.5746C155.569 11.5746 157.653 12.4965 159.175 13.993C160.719 15.5119 161.679 17.608 161.696 19.9414C161.696 19.9664 161.696 19.9914 161.696 20.0163C161.696 22.3223 160.773 24.4134 159.277 25.9372C157.748 27.4936 155.62 28.4606 153.266 28.4606C148.66 28.4606 144.909 24.6331 144.909 20.0163V0.0175781H144.903Z"></path>
    <path fill="#e16489" d="M78.4206 17.9197V17.9146V17.9047C78.4206 17.8997 78.4206 17.8922 78.4206 17.8922C77.9841 15.4063 76.7844 13.1854 75.0709 11.4766H75.0684C72.8884 9.30306 69.8829 7.95898 66.5706 7.95898H66.5655C63.2482 7.95898 60.2427 9.30557 58.0677 11.4841C57.8432 11.7089 57.6338 11.9463 57.4292 12.1886C55.6383 14.2897 54.5508 17.0127 54.5508 19.9933C54.5508 23.3159 55.8953 26.3263 58.0701 28.5023L58.0727 28.5049C60.2477 30.6809 63.2482 32.0274 66.5655 32.0274C66.6004 32.0274 66.6354 32.0274 66.6703 32.0274C70.5114 31.995 73.921 30.1562 76.0984 27.3207L73.2525 25.1347C71.7261 27.1258 69.3317 28.415 66.6379 28.4374C66.6129 28.4374 66.588 28.4374 66.563 28.4374C64.236 28.4374 62.1283 27.4931 60.6043 25.9641C59.0778 24.4351 58.1351 22.3241 58.1351 19.9933C58.1351 17.6623 59.0778 15.5538 60.6019 14.0249C62.1283 12.4959 64.236 11.549 66.5655 11.549C68.8952 11.549 71.0027 12.4909 72.5342 14.0149C73.5993 15.0741 74.3849 16.4157 74.7641 17.9171H65.8772V21.5097H78.4281H78.5329C78.5928 21.025 78.6326 20.5354 78.6326 20.0357C78.6326 19.3287 78.5478 18.5991 78.4306 17.9246"></path>
    <path fill="#e16489" d="M192.257 17.9197V17.9146V17.9047C192.257 17.8997 192.257 17.8922 192.257 17.8922C191.821 15.4063 190.621 13.1854 188.908 11.4766H188.905C186.725 9.30306 183.719 7.95898 180.405 7.95898C180.405 7.95898 180.402 7.95898 180.399 7.95898C177.082 7.95898 174.078 9.30557 171.902 11.4841C171.677 11.7089 171.468 11.9463 171.261 12.1886C169.47 14.2897 168.383 17.0127 168.383 19.9933C168.383 23.3159 169.727 26.3263 171.902 28.5023C171.902 28.5023 171.902 28.5049 171.905 28.5049C174.079 30.6809 177.081 32.0274 180.398 32.0274C180.433 32.0274 180.467 32.0274 180.502 32.0274C184.344 31.995 187.753 30.1562 189.93 27.3207L187.084 25.1347C185.558 27.1258 183.165 28.415 180.47 28.4374C180.445 28.4374 180.419 28.4374 180.395 28.4374C178.068 28.4374 175.96 27.4931 174.434 25.9641C172.907 24.4351 171.965 22.3241 171.965 19.9933C171.965 17.6623 172.907 15.5538 174.432 14.0249C175.957 12.4959 178.066 11.549 180.395 11.549C182.725 11.549 184.832 12.4909 186.363 14.0149C187.429 15.0741 188.215 16.4157 188.594 17.9171H179.707V21.5097H192.257H192.362C192.422 21.025 192.462 20.5354 192.462 20.0357C192.462 19.3287 192.377 18.5991 192.26 17.9246"></path>
</svg>