<?xml version="1.0" encoding="utf-8"?>
<!-- Generator: Adobe Illustrator 24.2.3, SVG Export Plug-In . SVG Version: 6.00 Build 0)  -->
<svg version="1.1" id="Layer_1" xmlns="http://www.w3.org/2000/svg" xmlns:xlink="http://www.w3.org/1999/xlink" x="0px" y="0px"
	 viewBox="0 0 700 460" style="enable-background:new 0 0 700 460;" xml:space="preserve">
<style type="text/css">
	.st0{fill:url(#SVGID_1_);}
</style>
<linearGradient id="SVGID_1_" gradientUnits="userSpaceOnUse" x1="-16.5883" y1="283.9835" x2="701.4712" y2="157.3702">
	<stop  offset="0" style="stop-color:#4DF8CE"/>
	<stop  offset="0.5297" style="stop-color:#84A1FD"/>
	<stop  offset="1" style="stop-color:#E3A5EE"/>
</linearGradient>
<path class="st0" d="M588.73,201.05c3.1,67.8-80.31,105.98-71.35,72.54c8.74-18.31,9.45-38.12,4.54-57.6
	c-3.87-9.18,6.2-11.61,8.92-18.66c-19.25-3.68-39.96,5.73-59.55,7.44c-59.81,9.42-119.62,19-179.6,26.3
	c-10.54,3.32-20.42,7.43-29.42,14.27c-11.76,8.7-26.61,13.34-37.43,23.55c-10.04,13.35-84.96,66.65-70.89,78.56
	c19.41,17.88,32.43,30.35,41.22,56.07c2.99,7.98,3.64,16.82,5.68,25.19c3.83,9.72,2.39,19.69-5.15,27.23
	c-15.08-13.15-29.94-26.03-49.7-31.41c-6.6-2.11-12.73-4.6-17.31-10.23c-1.38-1.7-4.4-3.45-6.31-3.11
	c-21.68,0.46-40.87-12.99-61.98-15.91c-18.61-4.94-36.86,3.64-55.62,2.75c-0.69-0.03-2.14-2.77-1.78-3.63
	c3.5-8.24,6.32-17.05,11.37-24.26c12.96-13.31,32.24-20.98,48.5-29.9c18.03-6.77,39.06-3.96,56.15-14.18
	c14.24-10.92,14.87-32.24,23.94-47.08c30.7-63.11,69.06-124.78,123.45-170.22c21.56-16.87,43.46-32.96,67.13-46.84
	c9.22-5.41,15.94-14.54,19.8-24.98c1.67-4.52,1.74-9.09-1.72-13.17C341.9,7.25,385.25,0.4,393.77,11
	c10.53,5.9,21.22,16.8,33.99,15.72c70.86-11.97,145.76-0.79,209.19,32.96c33.37,17.87,77.14,55.77,51.51,96.65
	c-5.43,9.46,11.49,15.99,7.54,32.34c-1.46,13.06-18.81,11.21-28.34,8.78c-20.85-6.51-42.2-10.65-64.08-11.72
	C590.72,185.14,587.57,188.52,588.73,201.05z"/>
</svg>
