<svg xmlns="http://www.w3.org/2000/svg" width="38" height="46.769" viewBox="0 0 38 46.769">
    <path d="M39.275,46.769h-13.7a.972.972,0,0,1-.69-.286L12.86,34.4a.976.976,0,0,1,0-1.376L24.886,20.964a.981.981,0,0,1,.692-.288h13.7a.974.974,0,0,1,.692,1.66L28.645,33.712,39.967,45.1a.977.977,0,0,1-.692,1.664Zm-13.3-1.949H36.932L26.579,34.4a.974.974,0,0,1,0-1.374l10.351-10.4H25.981L14.926,33.712ZM10.1,31.269a.972.972,0,0,1-.69-.286l-6.875-6.91a.976.976,0,0,1,0-1.376L24.86.286a.977.977,0,0,1,.894-.265H39.246a.974.974,0,0,1,.692,1.66l-29.147,29.3A.976.976,0,0,1,10.1,31.269ZM4.6,23.384l5.5,5.528L36.9,1.97H25.932Z" transform="translate(-2.25 0)" fill="#fff">
    </path>
</svg>