<?xml version="1.0" encoding="utf-8"?>
<!-- Generator: Adobe Illustrator 24.2.3, SVG Export Plug-In . SVG Version: 6.00 Build 0)  -->
<svg version="1.1" id="Layer_1" xmlns="http://www.w3.org/2000/svg" xmlns:xlink="http://www.w3.org/1999/xlink" x="0px" y="0px"
	 viewBox="0 0 80 80" style="enable-background:new 0 0 80 80;" xml:space="preserve">
<style type="text/css">
	.st0{fill:url(#SVGID_1_);}
</style>
<g>
	<linearGradient id="SVGID_1_" gradientUnits="userSpaceOnUse" x1="12.4219" y1="12.9215" x2="67.5781" y2="68.0777">
		<stop  offset="0" style="stop-color:#4DF8CE"/>
		<stop  offset="0.5297" style="stop-color:#84A1FD"/>
		<stop  offset="1" style="stop-color:#E3A5EE"/>
	</linearGradient>
	<path class="st0" d="M73.66,62c-22.44,7.74-44.87-7.74-67.31,0c0-1.33,0-2.67,0-4c22.44-7.74,44.88,7.74,67.31,0
		C73.66,59.33,73.66,60.67,73.66,62z M73.66,42c-22.44,7.74-44.87-7.74-67.31,0c0-1.33,0-2.67,0-4c22.44-7.74,44.88,7.74,67.31,0
		C73.66,39.33,73.66,40.67,73.66,42z M73.66,23c-22.44,7.74-44.87-7.74-67.31,0c0-1.33,0-2.67,0-4c22.44-7.74,44.88,7.74,67.31,0
		C73.66,20.33,73.66,21.67,73.66,23z"/>
</g>
</svg>
