<?xml version="1.0" encoding="utf-8"?>
<!-- Generator: Adobe Illustrator 24.2.3, SVG Export Plug-In . SVG Version: 6.00 Build 0)  -->
<svg version="1.1" id="Layer_1" xmlns="http://www.w3.org/2000/svg" xmlns:xlink="http://www.w3.org/1999/xlink" x="0px" y="0px"
	 viewBox="0 0 220 120" style="enable-background:new 0 0 220 120;" xml:space="preserve">
<style type="text/css">
	.st0{display:none;fill:#0B0E17;}
	.st1{fill:#F83AA2;stroke:#F83AA2;stroke-miterlimit:10;}
</style>
<rect class="st0" width="180" height="80"/>
<g>
	<path class="st1" d="M141.92,72.31c-0.42-0.79-0.95-1.63-1.51-2.31c-1.21-1.29-3.18-1.18-4.35,0.13c-0.48,0.52-0.84,1.18-1.02,1.8
		c-0.36,0.95-0.44,1.9-0.61,2.87c-0.1,1.18-0.34,2.24-1,3.38c-0.27,0.47-0.44,0.99-0.55,1.53c-0.34,0.07-0.67,0.16-1.04,0.23
		c-1.86,0.51-3.71,1.02-5.59,1.46c-2.29,0.59-2.39,0.55-2.86-1.32l-0.26-0.89c-1.28-6.78-2.66-13.6-3.06-20.46
		c-0.23-4.44-0.27-8.93,0.32-13.38c0.19-1.2,0.09-2.48,1.43-3.47c0.46-0.31,0.36-0.93,0.22-1.42c-0.13-0.41-0.48-0.71-1.02-0.67
		c-0.28-0.02-0.69,0.14-0.91,0.32c-0.85,0.82-0.93,1.78-1.1,2.76c-0.82,4-0.98,8.09-0.95,12.21c0.17,7.64,1.33,15.24,3.03,22.8
		c0.24,1.1,0.5,2.29,0.65,3.42c0.17,1.2,0.06,1.43-1.2,1.82l-8.56,2.55c-4.02,1.23-8.06,2.38-12.08,3.61
		c-0.93,0.25-1.46,0-1.66-0.68c-0.08-0.27-0.08-0.57-0.07-0.85c-1.81-9.78-3.36-19.61-4.54-29.45c-0.36-2.76-0.83-5.56-0.39-8.39
		c0.05-0.44-0.19-0.98-0.41-1.37c-0.05-0.14-0.36-0.3-0.54-0.26c-0.28-0.01-0.51,0.1-0.67,0.2c-0.43,0.38-0.57,0.83-0.6,1.36
		c0.02,1-0.01,2.11,0.11,3.17c0.87,9.68,2.44,19.29,4.01,28.9c0.33,2.32,0.82,4.61,1.15,6.95c0.24,1.12,0.02,1.3-1.22,1.75
		c-0.65,0.27-1.32,0.48-2.07,0.69c-3.28,0.93-6.67,1.82-10.04,2.78c-2.79,0.76-5.47,1.58-8.23,2.41c-0.75,0.22-1.02,0.85-0.75,1.16
		c0.38,0.36,0.83,0.34,1.36,0.24c0.17-0.03,0.43-0.09,0.67-0.2l16.92-4.85c0.93-0.25,1.88-0.44,2.82-0.63
		c0.52-0.1,1.01,0.02,1.07,0.51l1.08,4.57c0.88,4.17,1.77,8.42,2.72,12.57c0.44,1.8,1.14,3.54,2.02,5.25
		c0.8,1.43,2.08,2.41,3.95,2.85c0.39,0.07,0.95,0.1,1.28-0.32c0.24-0.41,0.03-0.81-0.46-0.92c-2.53-0.81-3.42-2.58-4.01-4.57
		c-2.19-6.45-3.33-13.03-4.38-19.7c-0.24-1.12-0.02-1.3,1.32-1.71c4.02-1.23,8.06-2.38,12.08-3.61c2.77-0.83,5.56-1.59,8.26-2.35
		c1.42-0.42,1.77-0.2,2.1,0.89c0.96,3.21,1.82,6.45,2.78,9.67c0.73,2.46,1.7,4.81,2.87,7.19c0.43,0.85,0.98,1.77,1.82,2.46
		c0.83,0.64,1.77,1.02,2.95,0.72c0.24-0.13,0.48-0.24,0.52-0.39c0.05-0.15-0.06-0.5-0.16-0.55c-2.97-0.79-3.62-2.98-4.41-5
		c-1.28-3.07-3.43-9.68-3.86-12.06c-0.3-1.32-1.48-2.82-0.42-3.89c1.12-1.16,3.44-1.33,5.19-1.89c0.6-0.11,1.21,0.06,1.83,0
		c0.34-0.02,0.66-0.08,0.97-0.16c0.34,2.63,2.02,5.43,4.02,6.79c1.94,1.29,4.2,0.91,5.5-0.87c0.82-1.24,1.16-2.55,1.3-3.95
		c0.33-2.89,0.01-5.8-0.96-9.08C142.55,74.14,142.35,73.17,141.92,72.31z M141.55,83.39c-0.06,1.02-0.3,2.08-0.83,3.06
		c-0.66,1.15-1.79,1.37-2.85,0.56c-1.32-1.05-1.9-2.08-2.31-4.11c0.99-0.05,1.25,0.84,2.11,0.96c0.36,0,0.73,0,1.06-0.14
		c0.38-0.28,0.44-0.66,0.15-1.05c-0.1-0.05-0.15-0.19-0.25-0.24c-1.79-1.39-2.03-3.14-2.13-5.01c-0.03-1.95,0.14-3.86,0.96-5.69
		c0.11-0.24,0.5-0.47,0.74-0.58c0.43-0.08,0.68,0.16,0.85,0.41c0.33,0.51,0.75,1.01,0.92,1.56
		C141.31,76.42,141.96,79.83,141.55,83.39z"/>
	<path class="st1" d="M216.58,64.14c-0.25-0.24-0.71-0.23-0.99,0.05c-0.33,0.43-0.66,0.85-1.01,1.21c-1.86,1.74-3.99,3.18-6.5,4.25
		c-1.56,0.59-3.02,0.59-4.58-0.05c-0.73-0.3-0.98-0.82-0.51-1.42c0.57-0.83,1.34-1.64,1.91-2.47c0.75-1.16,0.92-2.43,0.36-3.69
		c-0.48-0.99-1.61-1.42-2.9-1.16c-1.3,0.26-2.21,0.87-2.87,1.72c-1.07,1.48-1.2,3.02-0.46,4.81c-0.08,0.06-0.18,0.11-0.25,0.18
		c-1.07,1-1.95,2.05-2.94,3.04c-1.59,1.7-3.38,3.05-5.61,4.15c-1.2,0.59-2.47,0.92-3.8,1.04c-3.4,0.24-5.56-0.87-6.94-3.34
		c-0.43-0.85-0.81-1.8-1.26-2.72c-0.33-0.81-0.92-1.56-1.66-2.21c-1.46-1.23-3.2-1.25-4.73,0.06c-1.23,1.1-1.87,2.32-2.28,3.71
		c-0.52,1.62-0.92,3.37-1.42,5.06c-0.39,1.16-0.68,2.31-1.48,3.33c-0.66,0.85-1.56,0.89-2.35,0.1c-0.64-0.59-0.95-1.33-1.25-2.07
		c-0.61-1.47-1.31-2.86-1.92-4.33c-0.35-0.88-0.85-1.64-1.59-2.29c-1.16-1.15-2.8-1.12-4,0.06c-1,0.92-1.5,2.03-1.71,3.17
		c-0.28,1.8-0.42,3.48-0.74,5.22c-0.22,1.13,0.07,2.38-0.93,3.95c-0.48-0.99-0.81-1.5-0.98-2.05c-0.89-3.01-1.53-6.07-1.46-9.2
		c0.01-0.58,0.02-1.16-0.14-1.71c-0.08-0.27-0.33-0.51-0.85-0.41c-0.15,0.1-0.41,0.15-0.55,0.33c-0.19,0.25-0.28,0.56-0.32,0.79
		c-0.33,4.12,0.33,8.19,1.94,12.07c0.27,0.6,0.73,1.23,1.24,1.71c1.01,0.96,2.68,0.71,3.14-0.48c0.3-0.85,0.5-1.69,0.6-2.58
		l0.55-5.53c0.19-1.2,0.36-2.46,1.21-3.64c0.22-0.19,0.5-0.47,0.84-0.52c0.51-0.1,0.88,0.19,1.08,0.58l2.25,4.84
		c0.46,0.92,0.83,1.87,1.43,2.69c0.69,1.09,1.66,1.91,3.38,1.87c1.65,0.03,2.66-0.89,3.23-2.02c0.6-1.06,1.09-2.18,1.5-3.27
		c0.46-1.54,0.74-3.04,1.2-4.58c0.34-1,0.76-2.04,1.49-2.97c0.66-0.85,1.65-0.9,2.25-0.08c0.44,0.57,0.82,1.22,1.08,1.81
		c0.42,0.79,0.76,1.66,1.18,2.45c1.63,3.01,4.89,4.46,9.06,4.08c2.58-0.22,4.87-1.1,6.97-2.38c2.51-1.58,4.3-3.62,6.13-5.61
		c0.26,0.23,0.64,0.4,1.12,0.5c0.19,0.03,0.42,0.2,0.56,0.33c2.85,1.9,5.86,1.59,8.81,0.15c2.32-1.1,4.35-2.6,6.05-4.24
		c0.42-0.44,0.9-0.98,0.8-1.61C217.07,64.55,216.8,64.24,216.58,64.14z M201.63,67.01c-0.32-0.16-0.73-0.3-0.88-0.48
		c-0.43-0.85-0.23-1.7,0.15-2.56c0.49-1.12,1.64-1.84,2.24-1.38c0.91,0.61,0.41,1.37,0.18,2.14
		C203.02,65.51,202.53,66.33,201.63,67.01z"/>
</g>
</svg>
