<?xml version="1.0" encoding="utf-8"?>
<!-- Generator: Adobe Illustrator 24.2.3, SVG Export Plug-In . SVG Version: 6.00 Build 0)  -->
<svg version="1.1" id="Layer_1" xmlns="http://www.w3.org/2000/svg" xmlns:xlink="http://www.w3.org/1999/xlink" x="0px" y="0px"
	 viewBox="0 0 180 80" style="enable-background:new 0 0 180 80;" xml:space="preserve">
<style type="text/css">
	.st0{display:none;fill:#0B0E17;}
	.st1{fill:url(#SVGID_1_);}
	.st2{fill:url(#SVGID_2_);}
	.st3{fill:#0B0E17;}
</style>
<rect class="st0" width="180" height="80"/>
<g id="v5b__x28_simplified_x29_">
	
		<linearGradient id="SVGID_1_" gradientUnits="userSpaceOnUse" x1="-61.2294" y1="19.8868" x2="-22.871" y2="58.0351" gradientTransform="matrix(1 0 -0.1051 1 72.4171 0)">
		<stop  offset="0" style="stop-color:#4DF8CE"/>
		<stop  offset="0.5297" style="stop-color:#84A1FD"/>
		<stop  offset="1" style="stop-color:#E3A5EE"/>
	</linearGradient>
	<path class="st1" d="M33.03,61.11c1.61,0,2.79,1.31,2.62,2.92c-0.17,1.61-1.62,2.92-3.23,2.92c-1.61,0-2.79-1.31-2.62-2.92
		C29.97,62.42,31.42,61.11,33.03,61.11z M33.24,31.29c-0.17,1.61,1,2.92,2.62,2.92c1.61,0,3.06-1.31,3.23-2.92
		c0.17-1.61-1-2.92-2.62-2.92C34.86,28.37,33.41,29.68,33.24,31.29z M31.52,47.67c-0.17,1.61,1,2.92,2.62,2.92
		c1.61,0,3.06-1.31,3.23-2.92c0.17-1.61-1-2.92-2.62-2.92C33.14,44.74,31.69,46.05,31.52,47.67z M35.07,13.88
		c-0.17,1.61,1,2.92,2.62,2.92c1.61,0,3.06-1.31,3.23-2.92c0.17-1.61-1-2.92-2.62-2.92C36.69,10.96,35.24,12.27,35.07,13.88z
		 M14.86,61.11c1.61,0,2.79,1.31,2.62,2.92c-0.17,1.61-1.62,2.92-3.23,2.92s-2.79-1.31-2.62-2.92
		C11.8,62.42,13.24,61.11,14.86,61.11z M15.07,31.29c-0.17,1.61,1,2.92,2.62,2.92s3.06-1.31,3.23-2.92c0.17-1.61-1-2.92-2.62-2.92
		S15.24,29.68,15.07,31.29z M13.35,47.67c-0.17,1.61,1,2.92,2.62,2.92s3.06-1.31,3.23-2.92c0.17-1.61-1-2.92-2.62-2.92
		S13.52,46.05,13.35,47.67z M16.9,13.88c-0.17,1.61,1,2.92,2.62,2.92c1.61,0,3.06-1.31,3.23-2.92c0.17-1.61-1-2.92-2.62-2.92
		S17.07,12.27,16.9,13.88z"/>
	<linearGradient id="SVGID_2_" gradientUnits="userSpaceOnUse" x1="56.5345" y1="78.5889" x2="143.6372" y2="0.1612">
		<stop  offset="0" style="stop-color:#DBA0FC"/>
		<stop  offset="0.2033" style="stop-color:#4F75FD"/>
		<stop  offset="0.3626" style="stop-color:#D872FF"/>
		<stop  offset="0.3984" style="stop-color:#EDABF5"/>
		<stop  offset="0.5209" style="stop-color:#4DF8CE"/>
		<stop  offset="0.7687" style="stop-color:#84A1FD"/>
		<stop  offset="0.8949" style="stop-color:#E3A5EE"/>
		<stop  offset="1" style="stop-color:#EDE6BC"/>
	</linearGradient>
	<path class="st2" d="M134.13,13.68c14.3,0,28.02,6.79,26.05,25.48c-1.97,18.76-17.11,25.55-31.42,25.55
		c-14.3,0-27.95-6.79-25.98-25.55C104.74,20.47,119.82,13.68,134.13,13.68 M129.94,53.51c8.69,0,14.11-5.39,15.05-14.35
		c0.93-8.89-3.35-14.28-12.04-14.28c-8.63,0-14.11,5.39-15.05,14.28C116.96,48.12,121.31,53.51,129.94,53.51 M74.23,14.66
		l-3.97,37.73h28.6l-1.18,11.27H54.15l5.15-49H74.23 M134.13,8.18c-6.29,0-15.45,1.17-23.44,6.72C103,20.23,98.38,28.43,97.31,38.58
		c-0.32,3.08-0.27,5.84,0.05,8.3H76.38l3.33-31.66l0.64-6.07h-6.11H59.3h-4.95l-0.52,4.93l-5.15,49l-0.64,6.07h6.11h43.54h4.95
		l0.52-4.93l0.37-3.53c5.56,6.13,14.51,9.5,25.23,9.5c6.29,0,15.47-1.17,23.47-6.72c7.71-5.35,12.35-13.57,13.42-23.75
		c1.18-11.2-2.7-18.12-6.16-21.96C153.92,11.58,144.91,8.18,134.13,8.18L134.13,8.18z M129.94,48.01c-1.7,0-4-0.3-5.27-1.71
		c-1.15-1.27-1.6-3.6-1.29-6.57c0.65-6.21,3.87-9.36,9.58-9.36c1.72,0,4.03,0.3,5.3,1.7c1.13,1.26,1.58,3.57,1.27,6.5
		c-0.33,3.12-1.35,5.6-2.97,7.15C134.99,47.24,132.76,48.01,129.94,48.01L129.94,48.01z"/>
	<path class="st3" d="M97.69,63.66H54.15l5.15-49h14.93l-3.97,37.73h28.6L97.69,63.66z M160.18,39.16
		c-1.97,18.76-17.11,25.55-31.42,25.55s-27.95-6.79-25.98-25.55c1.96-18.69,17.04-25.48,31.35-25.48S162.14,20.47,160.18,39.16z
		 M144.99,39.16c0.93-8.89-3.35-14.28-12.04-14.28c-8.63,0-14.11,5.39-15.05,14.28c-0.94,8.96,3.41,14.35,12.04,14.35
		C138.63,53.51,144.05,48.12,144.99,39.16z"/>
</g>
</svg>
