<svg xmlns="http://www.w3.org/2000/svg" viewBox="0 0 956.79 980.92"><path d="M.3,65.46l-.3.06.29-.06h0Z"></path><path d="M2.93,751v0Z"></path><path d="M929.89,522.3l11.05-160.89L895.5,349.9q6-5.86,11.8-12.63a165.67,165.67,0,0,0,28.38-48.16,163,163,0,0,0,10.43-57.58c0-5.48-.27-10.89-.78-16.21h0a196.35,196.35,0,0,0-20-69.79c-19.12-38.06-48.9-65.75-78.9-84.49C800.89,32.88,753.19,20,703.4,11.3,653.58,3,601.15,0,547.28,0,420.88.1,286.08,16.62,181,32.81,78.88,48.61,5.59,64.32.29,65.46l47.09,220h0l.3-.07,2.72-.58c12.47-2.64,66.5-13.8,140.23-25.75l-27.9,137.45,121.34,30.71L136.41,443.65,137,585.74a311.52,311.52,0,0,0-51.39,22c-16,9.09-33.22,20.4-50.43,40.55a142.41,142.41,0,0,0-23,38,134.81,134.81,0,0,0-9.27,64.6C6,781.79,19.25,809,34.05,828c14,18.15,29.13,30.77,43.88,41,27.78,18.93,55.41,30.48,84.67,40.69,51,17.37,107.43,29,166.06,38.41,87.64,13.93,179.23,21.93,249.81,26.68s119.71,6.08,120.78,6.11L705.43,756l-5.74-.18c-9.33-.31-29.72-1.08-57.3-2.57,99.58-3.38,190.81-4.1,246-4.06,17.57,0,31.55.06,41.09.13s14.42.13,14.43.13l12.88-224.41Z"></path></svg>