<svg xmlns="http://www.w3.org/2000/svg" viewBox="0 0 1005.78 977.31"><path d="M273.06.05h0Z"></path><path d="M1005.78,327.92,846.7,284.11l-6,21.72c-6.87-64-15.94-122.14-30.39-171.22-8.07-26.47-17-50.52-33.15-74.55-8.22-11.93-18.6-24.25-34-35.18C728.07,14,706.56,5.29,684,4.58c-1.8-.07-3.58-.11-5.34-.11A130.65,130.65,0,0,0,623.3,16.62C592.86,30.87,572.56,54.44,559.41,77a234.39,234.39,0,0,0-10.94,21.69L529.74,24.36l-158.94,36a167.22,167.22,0,0,0-12.95-17.85,123.82,123.82,0,0,0-34.13-28.44A110.42,110.42,0,0,0,273.1.05c-1,0-2.06,0-3.11,0a107.1,107.1,0,0,0-53.12,14.12A114.9,114.9,0,0,0,185,41.44C171.18,58.58,164,75.15,158.47,91.3c-8.06,24.25-12.06,48.68-14.83,75.37q-1.09,11-1.83,22.38L9.13,218.14s.06.36.21,1.44c2.36,16.07,22.89,165.12,22.81,319.6,0,49.8-2.12,100.09-7.36,146S11.09,772.4,0,803.39l155.48,55.25A573.11,573.11,0,0,0,175,788.72l41,140.43,130.46-30.48a180.24,180.24,0,0,0,25.69,36.74,134.19,134.19,0,0,0,32.87,26.33,119.75,119.75,0,0,0,45.49,14.76,128.38,128.38,0,0,0,14.25.8,120.71,120.71,0,0,0,53-12.16c28.92-14.25,47-36.81,58.6-57.53,1.34-2.45,2.61-4.91,3.83-7.36l16,63.42,160.84-36.59s-1.1-5.44-3.15-16c-2.19-11.27-5.4-28.16-9.27-49.44l109.62,16.27Z"></path><path d="M683.89,4.57h0Z"></path></svg>