<svg xmlns="http://www.w3.org/2000/svg" viewBox="0 0 968.05 953.02"><path d="M768.34,603.59c19.67-7.32,36.83-13.9,51-19.63,11.9-4.83,21.52-8.9,30.62-13.32a140.69,140.69,0,0,0,15.81-8.85A91.3,91.3,0,0,0,880.42,550a84.05,84.05,0,0,0,13-16.67,82.9,82.9,0,0,0-8.29-96.79c15.81-7.59,31.42-17.14,46.64-31.92a124.76,124.76,0,0,0,25.52-35.85,114.63,114.63,0,0,0,10.75-48.42,121.79,121.79,0,0,0-6.6-39.15h0a133.62,133.62,0,0,0-24.63-43.3c-18.15-21.28-39.42-34.52-60.5-44.21-7.83-3.52-15.75-6.61-23.76-9.34A119,119,0,0,0,855,159.78a126.57,126.57,0,0,0-1.86-21.58h0A145.26,145.26,0,0,0,815.65,63C787,33.08,753,19.24,720.12,10.87,686.88,2.69,652.67.07,617,0c-55,.05-113.69,6.69-172.06,16.19C270.42,44.81,98.31,100,96.24,100.61l37.4,117.14c-71.11,12.46-117.39,22-118,22.17L34.09,403.18c.54,0,26.13-.56,67.73-2.36C82.27,410.27,63,422,45.23,441.06A130.41,130.41,0,0,0,21,478.27a121.52,121.52,0,0,0-9.7,47.61q0,2,.06,4c.53,27.67,10.9,57.59,28.63,79.47a147.18,147.18,0,0,0,44.7,37.32,191.69,191.69,0,0,0,21.4,10L58.65,672.44C22,684.61.06,691.83,0,691.85L35.06,852.19l227.47-25.62L238,893.68C352.11,935.46,451.64,953,538.17,953c77.77.05,144.84-14.36,200.52-36.92,83.71-33.83,140.71-85.23,176.22-128.16,35.63-43.08,50.69-77.92,53-83.43L882.6,590.72Z"></path></svg>