<?xml version="1.0" encoding="utf-8"?>
<!-- Generator: Adobe Illustrator 24.2.3, SVG Export Plug-In . SVG Version: 6.00 Build 0)  -->
<svg version="1.1" id="Layer_1" xmlns="http://www.w3.org/2000/svg" xmlns:xlink="http://www.w3.org/1999/xlink" x="0px" y="0px"
	 viewBox="0 0 400 760" style="enable-background:new 0 0 400 760;" xml:space="preserve">
<style type="text/css">
	.st0{fill:url(#SVGID_1_);}
</style>
<linearGradient id="SVGID_1_" gradientUnits="userSpaceOnUse" x1="-22.749" y1="601.8668" x2="427.0629" y2="136.0729">
	<stop  offset="0" style="stop-color:#4DF8CE"/>
	<stop  offset="0.5297" style="stop-color:#84A1FD"/>
	<stop  offset="1" style="stop-color:#E3A5EE"/>
</linearGradient>
<path class="st0" d="M71.12,348.28c-1.61-4.63-3.87-9.15-4.63-13.92c-0.61-3.82,2.49-6.26,6.25-7.29
	c7.38-2.02,14.77-4.01,22.14-6.06c1.83-0.51,3.61-1.19,6.3-2.09c-1.83-1.26-2.67-2.26-3.66-2.43c-4.08-0.72-7.26-2.23-8.1-6.83
	c-0.14-0.75-1.27-1.83-2-1.88c-10.03-0.74-20.07-1.32-31.72-2.05c2.45,8.66,4.39,15.53,6.34,22.41c-0.43,0.24-0.86,0.48-1.29,0.72
	c-2.59-4.88-5.85-9.53-7.57-14.69c-1.75-5.26,0.95-9.4,6.48-10.8c5.77-1.47,11.72-2.49,17.65-2.95c4.45-0.35,7.35-1.48,7.11-6.84
	c10.07,0.81,19.71,0.77,29.12,4.5c3.44,1.36,8.19-0.6,12.34-1.04c0.24-0.57,0.49-1.15,0.73-1.72c-5.88-4.62-11.3-10.05-17.75-13.67
	c-9.82-5.52-20.36-9.77-30.58-14.59c-1.51-0.71-2.92-1.62-4.76-2.64c-5.89,0.92-12.47,1.99-19.07,2.95
	c-1.89,0.27-7.62-4.9-6.87-6.37c0.7-1.37,2.78-2.82,4.29-2.86c15.96-0.46,32-2.03,47.66,2.8c0.55,0.17,1.2,0.02,2.23-0.9
	c-4.67-2.75-9.18-5.8-14.03-8.18c-14.24-6.99-29.73-8.39-45.2-8.64c-4.34-0.07-8.73,3.41-13.38,5.37c0.63-4.35,3.69-6.66,7.69-7.34
	c18.04-3.06,36.08-4.31,53.67,2.44c9.61,3.69,19.39,7.12,28.57,11.71c7.2,3.61,13.6,8.82,21.26,12.97
	c-1.61-2.81-2.87-5.91-4.89-8.39c-13.84-16.87-27.46-34.26-45.48-46.74c-19.8-13.71-40.86-25.59-61.31-38.36
	c-4.54-2.84-8.83-6.08-12.79-9.85c10.39,9.05,23.14,12.24,36.12,14.47c15.03,2.59,28.58,8.83,41.59,16.26
	c10.95,6.25,21.42,13.36,32.43,20.3c-1.63-3.87-3.25-7.7-4.97-11.77c5.5-4.96,1.2-10.11-0.54-14.84
	c-5.81-15.71-11.87-31.34-18.49-46.71c-1.89-4.39-5.7-8.12-9.14-11.65c-8.39-8.61-16.28-17.51-22.29-28.06
	c-2.13-3.75-5.96-6.54-9.25-10.02c5.04-0.89,7.22,2.4,9.16,5.57c4.44,7.27,11.54,10.53,18.96,13.66c5.02,2.11,9.71,5.01,14.52,7.61
	c1.84,1,3.58,2.16,5.62,2.88c-6.7-8.82-15.66-14.72-25.75-19.71c6.33-0.37,28.28,8.12,34.99,13.03c10.12,7.4,20.4,14.57,30.94,22.07
	c-8.56-43.38-17.78-86.55-20.53-132.17c5.27,4.47,9.57,7.99,13.74,11.66c14.97,13.15,24.71,30.04,32.79,47.82
	c7.77,17.09,14.45,34.66,21.63,52.02c0.56,1.35,1.22,2.66,1.89,4.11c4.97-2.58,8.89-9.56,15.33-2.35
	c3.59-4.93,6.65-9.94,10.53-14.19c2.99-3.27,7.08-5.51,10.55-8.38c1.35-1.11,2.57-2.54,3.43-4.07
	c12.98-22.99,31.92-40.8,50.89-58.57c0.45-0.43,1.04-0.71,2.39-0.6c-0.8,1.85-1.51,3.74-2.42,5.54
	c-5.43,10.68-11.28,21.17-16.29,32.04c-11.4,24.74-19.6,50.55-24.68,77.33c-0.4,2.12-0.91,4.23-1.49,6.32
	c-1.91,6.88-3.16,12.48,1.72,20.04c4.64,7.2,4.36,17.79,5.42,26.98c0.75,6.53,0.15,13.22,0.15,21.08
	c10.02-13.04,18.77-25.81,28.97-37.31c10.32-11.64,21.42-22.82,33.38-32.74c11.85-9.82,24.51-19.19,38.12-26.23
	c13.61-7.05,26.51-16.6,42.29-18.85c0.32,0.4,0.64,0.79,0.95,1.19c-1.24,1.6-2.28,3.42-3.76,4.77c-7,6.38-14.03,12.75-21.24,18.89
	c-4,3.4-8.98,5.78-12.5,9.57c-10.83,11.66-21.26,23.7-31.63,35.79c-1.99,2.31-2.82,5.58-4.43,8.26c-2.98,4.93-6.17,9.73-9.21,14.62
	c-1.15,1.86-2.13,3.83-3.2,5.74c-0.28,0.5-0.47,1.11-0.88,1.46c-2.72,2.26-5.61,4.33-8.22,6.69c-6.67,6.03-10.7,13.67-14.32,21.84
	c-2.87,6.46-7.41,12.22-11.46,18.11c-4.89,7.1-10.05,14.02-15.13,21.07c7.07-4.17,13.93-8.61,21.14-12.38
	c11.32-5.92,22.59-12.08,34.41-16.83c9.19-3.69,19.15-5.56,28.85-7.87c4.5-1.07,9.19-1.55,13.82-1.75c4.28-0.19,6.53,3.42,4.51,7.31
	c-3.41-4.78-7.33-4.16-11.59-1.34c-4.91,3.25-9.83,6.56-15.02,9.31c-3.47,1.84-7.96,2.01-11.08,4.22
	c-8.62,6.14-16.81,12.9-25.08,19.53c-4.27,3.42-8.36,7.06-12.25,11.54c5.04-1.05,10.14-1.84,15.09-3.21
	c8.17-2.26,16.17-5.16,24.38-7.25c4.43-1.12,9.37-2.16,13.67-1.27c3.63,0.75,6.68,4.34,9.53,7.64c-8.97-4.15-17.67-4.77-26.71-1.23
	c-5.58,2.18-11.28,4.07-16.99,5.86c-14.57,4.57-26.74,13.29-38.63,22.41c-2.81,2.16-4.76,5.44-7.51,8.69
	c4.83,1.22,8.21,0.33,12.27-1.47c11.08-4.9,22.36-9.76,34.79-10.16c13.13-0.42,26.28-1.11,39.38-0.69
	c6.37,0.2,12.77,2.32,18.94,4.28c3.02,0.96,5.67,3.36,8.17,5.47c0.75,0.63,0.46,2.51,0.64,3.81c-1.21,0.08-2.59,0.59-3.61,0.18
	c-12.42-5.01-25.42-4.74-38.48-4.37c7.02,1.5,14.05,3.01,21.07,4.51c-0.09,0.66-0.17,1.32-0.26,1.99
	c-15.82,1.5-31.98-1.05-48.55,2.62c3.03,4,5.35,6.16,9.79,7.12c11.98,2.58,19.53,11.07,24.9,21.95c-4.34-1.68-8.54-4.1-13.04-4.91
	c-14.06-2.51-28.23-4.36-42.35-6.55c-7.02-1.09-11.85,0.07-18.74,5.09c17.26-3.91,33.57-1.41,49.71,2.4
	c10.62,2.51,20.94,5.95,26.87,16.33c0.73,1.28,1.18,2.73,2.13,4.96c-4.97-3.16-8.72-6.05-12.91-8.04c-2.47-1.17-5.65-0.75-8.44-1.39
	c-1.56-0.36-2.94-2.02-4.42-2.05c-10.75-0.23-21.26-5.79-32.33-0.89c-4.79,2.12-10.32,2.53-15.44,4c-1.39,0.4-3.25,1.63-3.5,2.79
	c-0.27,1.21,0.78,3.21,1.87,4.14c4.07,3.44,7.28,8.27,13.69,8.16c1.24-0.02,3.78,2.79,3.54,3.73c-0.54,2.1-2.35,5.33-3.85,5.44
	c-3.38,0.25-6.92-0.99-10.33-1.85c-1.55-0.39-3.04-1.98-4.44-1.84c-2.8,0.28-5.52,1.37-8.27,2.13c1.2,1.97,2.36,3.96,3.6,5.9
	c2.46,3.84,5.25,7.51,7.31,11.55c0.82,1.61,0.21,4.05-0.07,6.07c-0.19,1.38-0.94,2.68-1.73,4.79c2.18-0.29,3.51-0.46,5.63-0.74
	c-2.37,3.94-4.5,7.48-7.22,12.01c3.34,1.78,6.64,3.53,10.35,5.51c0.7-2.14,1.13-3.45,1.73-5.29c2.88,6.06,5.1,11.97,8.37,17.23
	c3.41,5.48,7.84,10.31,12.27,15.99c-0.24,0.32-1.17,1.56-2.09,2.78c1.9,3.62,3.8,7.25,5.93,11.3c2.05-2.53,4.08-5.03,6.11-7.53
	c0.68,0.22,1.37,0.44,2.05,0.66c-0.29,4.19-0.58,8.38-0.91,13.08c-2.08-0.47-3.16-0.72-4.24-0.96c-2.94-0.65-3.78,0.64-2.79,3.24
	c1.47,3.83,3.08,7.6,4.7,11.55c1.99-0.94,3.75-1.76,5.5-2.59c0.59,0.91,1.15,1.67,1.59,2.49c0.78,1.46,1.49,2.95,2.23,4.43
	c-1.45,0.37-2.88,0.77-4.34,1.11c-2.39,0.56-4.63,1.05-3.38,4.51c0.59,1.63,0.12,3.65,0.79,5.22c1.41,3.31,3.25,6.43,4.9,9.59
	c-0.92,6.82-1.92,14.16-2.95,21.77c1.78,0.39,3.01,0.66,4.78,1.04c-1.05,8.34-1.13,16.65,3.31,24.77c-0.4,1.1-1.03,2.84-1.83,5.03
	c1.7,0,2.75,0,3.77,0c0.18,0.33,0.44,0.6,0.46,0.88c0.36,7.83,1.13,15.52-6.67,21.11c-3.44,2.47-2.32,14.21,0.18,17.74
	c1.01,1.43,0.68,3.86,0.83,5.85c0.11,1.42,0.02,2.85,0.02,3.53c-1.24,3.75-2.21,6.9-3.33,10c-0.43,1.18-1.09,2.32-1.82,3.35
	c-1.42,2-3.42,3.69-1.32,6.56c0.53,0.73,0.17,2.72-0.5,3.59c-2.34,3.09-2.13,5.72-0.1,7.35c-2.44,9.35-4.75,18.07-6.96,26.82
	c-0.23,0.9-0.15,2.11,0.28,2.92c4.56,8.54,2.7,13.21-5.74,18.77c-3.66,2.41-5.71,7.15-8.81,10.55c-3.26,3.59-6.88,6.85-10.39,10.21
	c-0.69,0.66-1.92,0.9-2.35,1.65c-2.94,5.11-5.47,10.48-8.71,15.39c-1.23,1.86-3.86,3.63-6.05,3.9c-14.37,1.79-28.97,2.25-43.15,4.97
	c-9.73,1.87-19.34,3.13-29.15,3.08c-3.04-0.02-6.05-1.18-9.11-1.64c-1.39-0.21-2.84-0.06-4.26,0.03c-8.09,0.5-16.04,2.53-23.74-3.18
	c-3.34-2.48-9-2.89-13.49-2.57c-13.6,0.97-23.65-5.63-33.54-13.59c-3.65-2.94-6.79-5.81-7.86-10.65c0.19-0.16,0.76-0.63,1.32-1.1
	c-0.22-0.38-0.31-0.76-0.55-0.92c-4.93-3.37-8.66-7.49-10.61-13.4c-1.11-3.38-3.79-6.23-5.46-9.46c-1.42-2.74-2.47-5.67-3.57-8.55
	c-1.28-3.37-1.61-7.52-3.82-10.04c-4.13-4.72-3.56-10.33-5.06-15.6c-2.15-7.54,1.67-14.41,0.67-21.65
	c-0.54-3.93-0.55-7.93-0.85-11.89c-0.05-0.62-0.25-1.62-0.64-1.77c-7.31-2.79-5.14-9.09-5.55-14.49c-0.19-2.5-0.55-5.04-1.23-7.45
	c-0.95-3.4-1.28-6.56,1.37-9.89c0.86,1.28,1.41,2.11,2.17,3.23c0.65-0.81,1.26-1.24,1.4-1.79c0.87-3.49,1.69-7,2.39-10.53
	c0.14-0.71-0.07-1.85-0.56-2.25c-6.17-5.06-5.1-12.03-5.12-18.74c-0.02-7.25,0.89-14,4.69-20.65c1.62-2.84-0.46-7.9-1.15-11.9
	c-0.44-2.53-1.62-4.92-2.1-7.45c-0.64-3.37-0.91-6.82-1.44-10.97c2.36-2.78,5.87-6.29,8.64-10.33c3.99-5.82-4.21-9.19-3.51-14.77
	c1.31-0.47,2.63-0.94,3.96-1.42c-2.83-7.69-2.57-8.23,5.12-11.14c3.69-1.4,4.77-5.09,2.4-8.33c-0.69-0.94-1.51-1.77-2.28-2.64
	c-2.36-2.65-2.45-4.76,1.49-5.7c4.42-1.05,6.3-3.46,7.07-8.25c0.67-4.15,1.34-9.56,7.34-10.85c0.92-0.2,2.26-2.2,2.09-3.13
	c-1.03-5.79,4.59-7.59,6.72-11.45c0.59-1.07,3.21-1.41,4.9-1.4c7.91,0.03,14.36-5.83,14.79-13.68c0.26-4.76,0.57-9.52,0.89-14.89
	c-2.87,0.52-5.2,1.13-7.56,1.31c-3.25,0.25-6.11,0.04-5.09-4.77c0.63-2.98,0.43-6.13,0.67-10.52c-5.88,3.37-11.3,6.47-15.71,9
	c-0.37,3.48-0.61,5.76-0.86,8.04c-0.47,0.03-0.94,0.06-1.4,0.09c-0.66-1.16-1.32-2.32-2.16-3.8c-1.49,1.3-2.89,2.52-5.12,4.45
	c-0.6-14.17,6.07-23.83,15.35-32.43c-2.45-3.42-4.73-6.6-7.06-9.84c-1.89,0.59-3.62,1.07-5.3,1.68c-7.9,2.88-12.91-2.55-18.48-6.38
	c0.06-1.1-0.33-2.74,0.25-3.22c5.63-4.73,10.42-10.75,18.78-11.19c4.93-0.26,9.81-1.48,14.71-2.27c0.01-0.41,0.02-0.83,0.03-1.24
	c-6.22-0.69-12.45-2-18.66-1.89c-5.54,0.1-11.09,1.6-16.58,2.78c-3.13,0.67-4.16,2.68-3.06,6.01
	C69.79,341.07,70.32,344.72,71.12,348.28z M106,318.65c4.52,0,8.58,0,14.14,0c-5.08-2.26-8.98-4.01-13.47-6
	C106.4,315.08,106.23,316.63,106,318.65z M126.74,356.86c4.71,1.54,8.68,2.84,12.65,4.13c0.18-0.6,0.35-1.2,0.53-1.8
	C136.2,356.87,132.91,352.8,126.74,356.86z"/>
</svg>
