<?xml version="1.0" encoding="utf-8"?>
<!-- Generator: Adobe Illustrator 23.0.1, SVG Export Plug-In . SVG Version: 6.00 Build 0)  -->
<svg version="1.1" id="Livello_1" xmlns="http://www.w3.org/2000/svg" xmlns:xlink="http://www.w3.org/1999/xlink" x="0px" y="0px"
	 viewBox="0 0 2046.6 500" enable-background="new 0 0 2046.6 500" xml:space="preserve">
<g>
	<g>
		<rect fill="#050399" width="500" height="500"/>
		<path fill="#FFFFFF" d="M113.1,191.6c16.6,0,35.3,3.1,35.3,24.4c0,21.3-18.7,24.4-35.3,24.4h-4.9v-48.8H113.1 M418,190.6
			c14.5,0,26.5-11.9,26.5-26.5c0-14.6-12-26.5-26.5-26.5c-14.5,0-26.5,11.9-26.5,26.5C391.5,178.7,403.5,190.6,418,190.6
			 M441.7,215.3h-47.3v133.2h47.3V215.3z M220.1,348.5l-61.5-80.2c27.8-4.9,42.8-28.3,42.8-55.3c0-41.8-29.3-60.2-68-60.2H57.3
			v195.8h50.9v-75.3h0.5l48.1,75.3H220.1z M367.2,215.3v133.2h-47.3v-14.8h-0.5c-8.3,13.2-24.7,19.2-40.2,19.2
			c-39.5,0-67.3-33-67.3-71.2s27.3-70.9,66.7-70.9c15.3,0,31.4,5.7,41.3,17.4v-13H367.2z M321.5,282c0-16.3-11.2-30.1-30.4-30.1
			s-30.4,13.8-30.4,30.1c0,16.9,11.2,29.9,30.4,29.9S321.5,298.9,321.5,282z"/>
	</g>
	<g>
		<path fill="#050399" d="M633,243.1c24,0,35.7-6.1,35.7-24c0-16.7-10.3-22.9-31.8-22.9H624v46.9H633z M641.9,309v41h-86.2v-41h19.3
			V192.4h-19.3v-40.7h85.4c20.9,0,36.8,1.4,50.2,10.9c17.6,12.3,26.8,31,26.8,55.8c0,20.9-7.2,38.2-22,51.9
			c-14.5,13.4-32.9,15.9-58.3,15.9h-13.9V309H641.9z"/>
		<path fill="#050399" d="M891.8,309.8h18.7V350h-59.7v-20.1c-10,15.4-24.5,22.6-44.4,22.6c-33.5,0-53-20.1-53-58.3v-56.9h-19.2
			v-40.4h63.6v84.2c0,21.5,5.9,31.5,24.3,31.5c15.6,0,26.5-11.4,26.5-31.5v-43.8H831v-40.4h60.8V309.8z"/>
		<path fill="#050399" d="M1025.6,311.5c21.2,0,36.8-15.9,36.8-38.2c0-22.3-15.6-38.2-36.8-38.2c-21.2,0-36.8,15.9-36.8,38.2
			C988.8,295.6,1004.4,311.5,1025.6,311.5 M945.3,191.8h-16.7v-40.2h58.6v64.2c10.9-14.2,25.4-21.5,46.9-21.5
			c43,0,74.8,32.9,74.8,78.9c0,46-31.8,79-74.8,79c-19.8,0-34.6-6.2-44.9-19.2v17h-60.5v-40.5h16.7V191.8z"/>
		<path fill="#050399" d="M1215.4,311.5c21.2,0,36.8-15.9,36.8-38.2c0-22.3-15.6-38.2-36.8-38.2c-21.2,0-36.8,15.9-36.8,38.2
			C1178.6,295.6,1194.2,311.5,1215.4,311.5 M1135.1,191.8h-16.7v-40.2h58.6v64.2c10.9-14.2,25.4-21.5,46.9-21.5
			c43,0,74.8,32.9,74.8,78.9c0,46-31.8,79-74.8,79c-19.8,0-34.6-6.2-44.9-19.2v17h-60.5v-40.5h16.7V191.8z"/>
		<polygon fill="#050399" points="1328.8,191.8 1310.1,191.8 1310.1,151.7 1372.1,151.7 1372.1,309.5 1391.3,309.5 1391.3,350 
			1309.6,350 1309.6,309.5 1328.8,309.5 		"/>
		<path fill="#050399" d="M1429.2,151.7h43.2v36.8h-43.2V151.7z M1429.2,237h-18.7v-40.2h61.9v112.7h19.2V350H1410v-40.4h19.2V237z"
			/>
		<path fill="#050399" d="M1582.1,353.6c-23.1,0-42.7-7.5-58.3-23.1c-15.6-15.4-23.4-34.9-23.4-57.2c0-22.3,7.5-41,23.4-57.2
			c14.8-15.3,33.5-23.2,53.3-23.2c16.7,0,30.7,5.9,42.1,17.6v-13.7h34.6v56.3h-41.3c-6.2-11.7-16.2-17.8-29.6-17.8
			c-20.6,0-36.5,16.5-36.5,37.9c0,21.5,15.4,38,35.7,38c12.5,0,23.1-6.1,28.7-17h49.9C1650.7,331.6,1621.7,353.6,1582.1,353.6"/>
		<path fill="#050399" d="M1697.1,151.7h43.2v36.8h-43.2V151.7z M1697.1,237h-18.7v-40.2h61.9v112.7h19.2V350h-81.7v-40.4h19.3V237z
			"/>
		<polygon fill="#050399" points="1788.9,237.7 1769.6,237.7 1769.6,197.5 1788.9,197.5 1788.9,152.3 1833,152.3 1833,197.5 
			1852.2,197.5 1852.2,237.7 1833,237.7 1833,310.2 1847.7,310.2 1847.7,350.6 1788.9,350.6 		"/>
		<path fill="#050399" d="M1949,127.7l26.8,50.5h-19.2l-42.7-50.5H1949z M1949.3,311.5c21.2,0,36.8-15.9,36.8-38.2
			c0-22.3-15.6-38.2-36.8-38.2c-21.2,0-36.8,15.9-36.8,38.2C1912.5,295.6,1928.1,311.5,1949.3,311.5 M1941.2,352.2
			c-42.9,0-75-32.9-75-78.9c0-46,32.1-78.9,75-78.9c20.6,0,35.4,6.4,46.9,21.5v-18.9h58.6V237h-16.7v72.5h16.7V350h-60.8v-17
			C1975.5,346.1,1961,352.2,1941.2,352.2"/>
	</g>
</g>
</svg>
