<?xml version="1.0" encoding="utf-8"?>
<!-- Generator: Adobe Illustrator 25.4.1, SVG Export Plug-In . SVG Version: 6.00 Build 0)  -->
<svg version="1.1" id="Livello_1" xmlns="http://www.w3.org/2000/svg" xmlns:xlink="http://www.w3.org/1999/xlink" x="0px" y="0px"
	 viewBox="0 0 2046.6 500" style="enable-background:new 0 0 2046.6 500;" xml:space="preserve">
<style type="text/css">
	.st0{fill:#FFFFFF;}
</style>
<g>
	<g>
		<path class="st0" d="M113.1,191.6h-4.9v48.8h4.9c16.6,0,35.3-3.1,35.3-24.4C148.4,194.7,129.7,191.6,113.1,191.6z"/>
		<path class="st0" d="M291.1,251.9c-19.2,0-30.4,13.8-30.4,30.1c0,16.9,11.2,29.9,30.4,29.9c19.2,0,30.4-13,30.4-29.9
			C321.5,265.7,310.3,251.9,291.1,251.9z"/>
		<path class="st0" d="M0,0v500h500V0H0z M220.1,348.6h-63.3l-48.1-75.3h-0.5v75.3H57.3V152.8h76.1c38.7,0,68,18.4,68,60.2
			c0,27-15,50.4-42.8,55.3L220.1,348.6L220.1,348.6z M367.2,215.3v133.2h-47.3v-14.8h-0.5c-8.3,13.2-24.7,19.2-40.2,19.2
			c-39.5,0-67.3-33-67.3-71.2s27.3-70.9,66.7-70.9c15.3,0,31.4,5.7,41.3,17.4v-13h47.3V215.3z M441.7,348.5h-47.3V215.3h47.3V348.5z
			 M418,190.6c-14.5,0-26.5-11.9-26.5-26.5c0-14.6,12-26.5,26.5-26.5s26.5,11.9,26.5,26.5C444.5,178.7,432.5,190.6,418,190.6z"/>
	</g>
	<g>
		<path class="st0" d="M633,243.1c24,0,35.7-6.1,35.7-24c0-16.7-10.3-22.9-31.8-22.9H624v46.9H633z M641.9,309v41h-86.2v-41H575
			V192.4h-19.3v-40.7h85.4c20.9,0,36.8,1.4,50.2,10.9c17.6,12.3,26.8,31,26.8,55.8c0,20.9-7.2,38.2-22,51.9
			c-14.5,13.4-32.9,15.9-58.3,15.9h-13.9V309H641.9z"/>
		<path class="st0" d="M891.8,309.8h18.7V350h-59.7v-20.1c-10,15.4-24.5,22.6-44.4,22.6c-33.5,0-53-20.1-53-58.3v-56.9h-19.2v-40.4
			h63.6v84.2c0,21.5,5.9,31.5,24.3,31.5c15.6,0,26.5-11.4,26.5-31.5v-43.8H831v-40.4h60.8V309.8z"/>
		<path class="st0" d="M1025.6,311.5c21.2,0,36.8-15.9,36.8-38.2s-15.6-38.2-36.8-38.2c-21.2,0-36.8,15.9-36.8,38.2
			S1004.4,311.5,1025.6,311.5 M945.3,191.8h-16.7v-40.2h58.6v64.2c10.9-14.2,25.4-21.5,46.9-21.5c43,0,74.8,32.9,74.8,78.9
			s-31.8,79-74.8,79c-19.8,0-34.6-6.2-44.9-19.2v17h-60.5v-40.5h16.7L945.3,191.8L945.3,191.8z"/>
		<path class="st0" d="M1215.4,311.5c21.2,0,36.8-15.9,36.8-38.2s-15.6-38.2-36.8-38.2c-21.2,0-36.8,15.9-36.8,38.2
			S1194.2,311.5,1215.4,311.5 M1135.1,191.8h-16.7v-40.2h58.6v64.2c10.9-14.2,25.4-21.5,46.9-21.5c43,0,74.8,32.9,74.8,78.9
			s-31.8,79-74.8,79c-19.8,0-34.6-6.2-44.9-19.2v17h-60.5v-40.5h16.7L1135.1,191.8L1135.1,191.8z"/>
		<polygon class="st0" points="1328.8,191.8 1310.1,191.8 1310.1,151.7 1372.1,151.7 1372.1,309.5 1391.3,309.5 1391.3,350 
			1309.6,350 1309.6,309.5 1328.8,309.5 		"/>
		<path class="st0" d="M1429.2,151.7h43.2v36.8h-43.2V151.7z M1429.2,237h-18.7v-40.2h61.9v112.7h19.2V350H1410v-40.4h19.2V237z"/>
		<path class="st0" d="M1582.1,353.6c-23.1,0-42.7-7.5-58.3-23.1c-15.6-15.4-23.4-34.9-23.4-57.2s7.5-41,23.4-57.2
			c14.8-15.3,33.5-23.2,53.3-23.2c16.7,0,30.7,5.9,42.1,17.6v-13.7h34.6v56.3h-41.3c-6.2-11.7-16.2-17.8-29.6-17.8
			c-20.6,0-36.5,16.5-36.5,37.9c0,21.5,15.4,38,35.7,38c12.5,0,23.1-6.1,28.7-17h49.9C1650.7,331.6,1621.7,353.6,1582.1,353.6"/>
		<path class="st0" d="M1697.1,151.7h43.2v36.8h-43.2V151.7z M1697.1,237h-18.7v-40.2h61.9v112.7h19.2V350h-81.7v-40.4h19.3
			L1697.1,237L1697.1,237z"/>
		<polygon class="st0" points="1788.9,237.7 1769.6,237.7 1769.6,197.5 1788.9,197.5 1788.9,152.3 1833,152.3 1833,197.5 
			1852.2,197.5 1852.2,237.7 1833,237.7 1833,310.2 1847.7,310.2 1847.7,350.6 1788.9,350.6 		"/>
		<path class="st0" d="M1949,127.7l26.8,50.5h-19.2l-42.7-50.5H1949z M1949.3,311.5c21.2,0,36.8-15.9,36.8-38.2
			s-15.6-38.2-36.8-38.2c-21.2,0-36.8,15.9-36.8,38.2S1928.1,311.5,1949.3,311.5 M1941.2,352.2c-42.9,0-75-32.9-75-78.9
			s32.1-78.9,75-78.9c20.6,0,35.4,6.4,46.9,21.5V197h58.6v40H2030v72.5h16.7V350h-60.8v-17C1975.5,346.1,1961,352.2,1941.2,352.2"/>
	</g>
</g>
</svg>
