<?xml version="1.0" encoding="utf-8"?>
<!-- Generator: Adobe Illustrator 28.0.0, SVG Export Plug-In . SVG Version: 6.00 Build 0)  -->
<svg version="1.1" id="Layer_1" xmlns="http://www.w3.org/2000/svg" xmlns:xlink="http://www.w3.org/1999/xlink" x="0px" y="0px"
	 viewBox="0 0 128 128" style="enable-background:new 0 0 128 128;" xml:space="preserve">
<style type="text/css">
	.st0{fill:#92A2FB;}
</style>
<path class="st0" d="M44.9,18c-5,0.2-8.5,1-11.5,2.2c-3.1,1.2-5.7,2.8-8.4,5.5s-4.2,5.3-5.4,8.4c-1.2,3-2,6.4-2.2,11.5
	c-0.2,5-0.3,6.6-0.2,19.5c0,12.8,0.1,14.4,0.3,19.5c0.2,5,1,8.5,2.2,11.5c1.2,3.1,2.8,5.7,5.5,8.4c2.6,2.6,5.3,4.2,8.4,5.4
	c3,1.2,6.4,2,11.5,2.2c5,0.2,6.7,0.3,19.5,0.2s14.4-0.1,19.5-0.3s8.5-1,11.5-2.2c3.1-1.2,5.7-2.8,8.4-5.5c2.6-2.6,4.2-5.3,5.4-8.4
	c1.2-3,2-6.4,2.2-11.5c0.2-5,0.3-6.7,0.2-19.5s-0.1-14.4-0.3-19.5s-1-8.5-2.2-11.5c-1.2-3.1-2.8-5.7-5.5-8.4
	c-2.6-2.6-5.3-4.2-8.4-5.4c-3-1.2-6.4-2-11.5-2.2s-6.7-0.3-19.5-0.2S50,17.7,44.9,18 M45.5,103.4c-4.6-0.2-7.1-1-8.8-1.6
	c-2.2-0.9-3.8-1.9-5.4-3.5c-1.7-1.6-2.7-3.2-3.5-5.4c-0.6-1.7-1.4-4.2-1.6-8.8c-0.2-5-0.3-6.5-0.3-19.1c0-12.6,0-14.1,0.2-19.1
	c0.2-4.6,1-7.1,1.6-8.8c0.9-2.2,1.9-3.8,3.5-5.4c1.6-1.7,3.2-2.7,5.4-3.5c1.7-0.7,4.2-1.4,8.8-1.6c5-0.2,6.5-0.3,19.1-0.3
	s14.1,0,19.1,0.2c4.6,0.2,7.1,1,8.8,1.6c2.2,0.9,3.8,1.9,5.4,3.5c1.7,1.7,2.7,3.2,3.5,5.4c0.7,1.7,1.4,4.2,1.6,8.8
	c0.2,5,0.3,6.5,0.3,19.1s0,14.1-0.2,19.1c-0.2,4.6-1,7.1-1.6,8.8c-0.9,2.2-1.9,3.8-3.5,5.4c-1.7,1.7-3.2,2.7-5.4,3.5
	c-1.7,0.6-4.2,1.4-8.8,1.6c-5,0.2-6.5,0.3-19.1,0.3C52,103.7,50.5,103.6,45.5,103.4 M84,39.7c0,3.1,2.5,5.7,5.7,5.7
	c3.1,0,5.7-2.5,5.7-5.7S92.8,34,89.7,34c0,0,0,0,0,0C86.5,34,84,36.5,84,39.7 M40.2,65c0,13.4,10.9,24.2,24.3,24.2
	s24.3-10.9,24.2-24.3S77.9,40.6,64.5,40.7S40.2,51.6,40.2,65 M48.7,65c0-8.7,7-15.8,15.7-15.8s15.8,7,15.8,15.7
	c0,8.7-7,15.8-15.7,15.8C55.8,80.7,48.8,73.7,48.7,65C48.7,65,48.7,65,48.7,65"/>
</svg>
