<?xml version="1.0" encoding="utf-8"?>
<!-- Generator: Adobe Illustrator 24.2.3, SVG Export Plug-In . SVG Version: 6.00 Build 0)  -->
<svg version="1.1" id="Layer_1" xmlns="http://www.w3.org/2000/svg" xmlns:xlink="http://www.w3.org/1999/xlink" x="0px" y="0px"
	 viewBox="0 0 400 514" style="enable-background:new 0 0 400 514;" xml:space="preserve">
<style type="text/css">
	.st0{fill:url(#SVGID_1_);}
</style>
<linearGradient id="SVGID_1_" gradientUnits="userSpaceOnUse" x1="320.4211" y1="193.2482" x2="55.4287" y2="385.7765">
	<stop  offset="0" style="stop-color:#4DF8CE"/>
	<stop  offset="0.5297" style="stop-color:#84A1FD"/>
	<stop  offset="1" style="stop-color:#E3A5EE"/>
</linearGradient>
<path class="st0" d="M112.49,433.51c-38.22-7.53-52.42-31.7-35.65-61.48c-2.72-1.54-5.4-3.17-8.18-4.6
	c-25.29-13.08-27.01-39.42-14.5-56.07c2.68-3.56,4.96-7.42,7.37-11.05c-4.39-1.6-9.37-2.86-13.84-5.12
	c-17.83-9.02-23.15-27.07-12.21-43.92c10.9-16.8,25.5-29.82,44.22-37.7c5.98-2.52,11.86-5.53,18.09-7.12
	c6.52-1.67,13.38-2.09,20.13-2.72c14.7-1.38,29.42-2.56,44.13-3.78c4.97-0.41,9.94-0.79,14.92-0.98c8.02-0.32,9.64-2.37,10.24-10.13
	c1.13-14.63-5.46-26.85-11.4-39.29c-6.31-13.2-13.35-26.06-19.31-39.41c-12.5-28.01-9.6-55.87,2.35-83.25
	c2.95-6.76,8.3-11.68,15.01-14.79c9.42-4.35,17.59-0.63,19.98,9.42c1.5,6.29,2.61,12.8,2.79,19.25
	c0.32,11.19,5.41,20.44,10.61,29.75c7.04,12.6,14.16,25.15,21.16,37.78c9.23,16.67,19.41,32.66,33.66,45.58
	c11.27,10.21,21.63,20.88,29.45,34.27c12.18,20.85,30.19,37.16,45.68,55.44c7.28,8.59,14.62,17.33,20.45,26.9
	c10.74,17.63,18.21,36.81,19.89,57.54c1.11,13.74,1.45,27.72,0.31,41.44c-1.6,19.35-3.54,38.72-9.73,57.47
	c-3.99,12.11-11.05,22.17-18.96,31.36c-10.31,12-23.68,20.36-39.34,24.34c-2.58,0.65-5.21,1.52-7.82,1.53
	c-9.35,0.06-17.88,3.23-26.62,5.98c-15.14,4.77-30.62,8.12-46.64,7.13c-4.42-0.27-8.72-2.32-13.14-2.66
	c-9.44-0.74-18.97-0.49-28.39-1.4c-11.41-1.11-22.97-2.1-34.03-4.88c-7.33-1.84-13.96-6.61-20.76-10.35
	c-2.29-1.26-4.02-3.48-6.15-5.08c-12.68-9.52-16.85-22.14-13.81-37.44c0.1-0.48,0.13-0.98,0.17-1.47
	C112.63,433.81,112.54,433.66,112.49,433.51z"/>
</svg>
