<?xml version="1.0" encoding="utf-8"?>
<!-- Generator: Adobe Illustrator 24.2.3, SVG Export Plug-In . SVG Version: 6.00 Build 0)  -->
<svg version="1.1" id="Layer_1" xmlns="http://www.w3.org/2000/svg" xmlns:xlink="http://www.w3.org/1999/xlink" x="0px" y="0px"
	 viewBox="0 0 623 445" style="enable-background:new 0 0 623 445;" xml:space="preserve">
<style type="text/css">
	.st0{fill:url(#SVGID_1_);}
</style>
<linearGradient id="SVGID_1_" gradientUnits="userSpaceOnUse" x1="-10.4445" y1="405.886" x2="632.4152" y2="34.7308">
	<stop  offset="0" style="stop-color:#4DF8CE"/>
	<stop  offset="0.5297" style="stop-color:#84A1FD"/>
	<stop  offset="1" style="stop-color:#E3A5EE"/>
</linearGradient>
<path class="st0" d="M310.09,4.61c100.5,0,201.01,1.04,301.51,0.89c4.94-0.01,5.76,1.87,5.78,6.14
	c0.36,76.02,0.84,152.04,1.29,228.06c0.38,63.35,0.75,126.7,1.11,190.05c0.04,7.05-0.15,7.16-7.33,7.24
	c-150.32,1.61-300.65,3.23-450.97,4.86c-48.5,0.52-96.99,1.08-145.49,1.61c-5.62,0.06-6.53-0.9-6.63-7.28
	C7.93,347.82,6.51,259.48,5.1,171.13C4.26,118.29,3.43,65.45,2.6,12.61c-0.02-1.17,0.04-2.34-0.05-3.5
	c-0.33-4.37,1.29-6.13,6.04-6.1c88.5,0.61,176.99,1.06,265.49,1.53C286.08,4.6,310.09,4.25,310.09,4.61z"/>
</svg>
